# xmcd CD database file
#
# Track frame offsets:
#	182
#	26577
#	37780
#	53915
#	66537
#	81272
#	94117
#	108420
#	121077
#	147917
#	161990
#	173857
#	184677
#	195207
#	207712
#	220380
#	231597
#	244050
#	257852
#
# Disc length: 3476 seconds
#
# Revision: 4
# Processed by: cddbd v1.5.1PL0 Copyright (c) Steve Scherf et al.
# Submitted via: CDex 1.51
#
DISCID=1a0d9213
DTITLE=David Liebman - The Scale Syllabus Vol. 26 [CDOne)
DYEAR=1982
DGENRE=Jazz
TTITLE0=Bb Warm-Up Exercises
TTITLE1=Bb Major
TTITLE2=Bb Lydian
TTITLE3=Bb Harmonic Minor
TTITLE4=Bb Lydian Augmented
TTITLE5=Bb Augmented
TTITLE6=Blues Scale and Major
TTITLE7=Bb Major Pentatonic
TTITLE8=Bb Major Turnaround
TTITLE9=8 Bars aach Major Scale, Ascend Chrom.
TTITLE10=Bb7 Dominant 7th
TTITLE11=Bb7 +4 Lydian Dominant
TTITLE12=Bb7 Hindu
TTITLE13=Bb7 Whole Tone
TTITLE14=Bb7b9 Dim (Beg. w/ Half Step)
TTITLE15=Bb7b9 Dim to Ebmaj7+4 (Lydian)
TTITLE16=Bb7+9 Dim. Whole Tone
TTITLE17=Bb7+9 (Dim. W.T.) to Eb-Dorian Minor (2 bars)
TTITLE18=Tuning Notes
EXTD=YEAR: 1982
EXTT0=
EXTT1=
EXTT2=
EXTT3=
EXTT4=
EXTT5=
EXTT6=
EXTT7=
EXTT8=
EXTT9=
EXTT10=
EXTT11=
EXTT12=
EXTT13=
EXTT14=
EXTT15=
EXTT16=
EXTT17=
EXTT18=
PLAYORDER=
